PathFileType	4	(X/Y/Z)	C:/Users/opensim2020/Desktop/walking_exp_matlab/subject06_walking16_straight_04.trc	
DataRate	CameraRate	NumFrames	NumMarkers	Units	OrigDataRate	OrigDataStartFrame	OrigNumFrames	
100.00	100.00	6	51	mm	100.00	4009	352	
Frame#	Time	LFHD			RFHD			LBHD			RBHD			C7			T10			CLAV			STRN			RBAK			LSHO			LUPA			LELB			LFRM			LWRA			LWRB			LFIN			RSHO			RUPA			RELB			RFRM			RWRA			RWRB			RFIN			LASI			RASI			LPSI			RPSI			LTHI			LKNE			LTIB			LANK			LHEE			LTOE			RTHI			RKNE			RTIB			RANK			RHEE			RTOE			*39			*40			*41			*42			*43			*44			*45			*46			*47			*48			*49			*50			
		X1	Y1	Z1	X2	Y2	Z2	X3	Y3	Z3	X4	Y4	Z4	X5	Y5	Z5	X6	Y6	Z6	X7	Y7	Z7	X8	Y8	Z8	X9	Y9	Z9	X10	Y10	Z10	X11	Y11	Z11	X12	Y12	Z12	X13	Y13	Z13	X14	Y14	Z14	X15	Y15	Z15	X16	Y16	Z16	X17	Y17	Z17	X18	Y18	Z18	X19	Y19	Z19	X20	Y20	Z20	X21	Y21	Z21	X22	Y22	Z22	X23	Y23	Z23	X24	Y24	Z24	X25	Y25	Z25	X26	Y26	Z26	X27	Y27	Z27	X28	Y28	Z28	X29	Y29	Z29	X30	Y30	Z30	X31	Y31	Z31	X32	Y32	Z32	X33	Y33	Z33	X34	Y34	Z34	X35	Y35	Z35	X36	Y36	Z36	X37	Y37	Z37	X38	Y38	Z38	X39	Y39	Z39	X40	Y40	Z40	X41	Y41	Z41	X42	Y42	Z42	X43	Y43	Z43	X44	Y44	Z44	X45	Y45	Z45	X46	Y46	Z46	X47	Y47	Z47	X48	Y48	Z48	X49	Y49	Z49	X50	Y50	Z50	X51	Y51	Z51	

177	1.760	1480.55554	200.23268	1674.11572	1350.33545	210.96465	1653.35742	1496.38403	329.70816	1613.03198	1368.32166	339.97891	1598.16724	1445.14307	328.44437	1454.53064	1437.48047	355.67664	1124.72644	1441.76025	218.11726	1378.55396	1452.33557	175.93762	1202.91992	1366.93201	398.47031	1280.79150	1603.11841	265.61957	1412.42725	1672.01855	232.85104	1212.35413	1680.18091	210.94162	1100.70520	1678.18823	113.85255	985.55359	1613.83203	6.91325	935.29034	1649.58069	47.76297	889.55920	1635.18323	-33.02109	851.37128	1281.20557	263.98245	1407.62927	1195.31921	307.34198	1209.08691	1184.64844	299.00275	1086.83862	1168.33276	281.11111	967.73315	1201.69666	216.72328	831.34882	1161.13831	270.65939	830.47632	1160.53430	230.87660	755.75604	1554.56396	181.22142	964.65717	1333.61926	165.47037	977.00787	1516.12732	337.22879	990.45508	1348.95801	319.07532	1000.46075	1605.19275	255.84067	644.88525	1587.97644	256.37573	480.76007	1570.36536	440.22400	308.09155	1528.45862	556.56329	184.01752	1478.35352	588.45721	201.76732	1532.15625	490.87616	53.42452	1268.75818	187.66344	646.99231	1295.21973	169.14374	523.87494	1290.82178	183.60274	257.26181	1336.13623	176.07957	71.26371	1382.49280	212.90851	45.77587	1341.20142	21.34168	41.51930	1427.88867	307.29330	1702.70337																																	 
178	1.770	1479.29248	193.88615	1674.49316	1349.05371	204.21614	1653.84436	1494.70386	323.20236	1613.31372	1366.77722	333.52206	1598.36963	1443.40710	321.96881	1455.03015	1435.89453	349.35693	1125.08398	1440.33276	211.69070	1378.87964	1450.93518	169.74615	1203.20886	1364.91431	392.12921	1281.32520	1601.76038	259.55093	1412.48303	1670.70386	228.37289	1211.98499	1679.00098	207.03374	1100.25745	1677.68701	110.66712	984.57556	1614.06641	3.61406	933.67340	1649.68396	44.90752	888.19421	1635.92297	-35.77855	849.68536	1279.60291	256.99362	1407.97668	1193.51001	299.73859	1209.41785	1182.71948	291.20181	1087.19702	1166.53223	272.84839	968.08936	1200.24292	207.89529	832.07495	1159.24536	262.08606	830.85675	1158.80579	221.92155	756.33032	1553.46436	175.26099	965.08081	1332.21545	159.20837	977.36523	1515.00012	331.07764	990.57538	1347.80737	312.94879	1000.77917	1604.17310	245.98207	644.99597	1587.09412	243.47510	481.11734	1569.19275	428.48450	311.41409	1527.01526	547.08960	189.86162	1476.45544	577.71411	208.28625	1531.67786	485.64920	56.83647	1267.63232	183.22984	647.16302	1293.88025	165.52155	523.80005	1289.99622	182.00522	257.17227	1335.93665	175.92703	71.17168	1382.34412	212.96254	45.77121	1341.23999	21.36418	41.36277	1426.43359	300.78116	1703.02417																																	 
179	1.780	1478.16248	187.45155	1674.90833	1347.87683	197.46442	1654.27893	1493.21777	316.80801	1613.67273	1365.19824	326.55429	1598.81128	1441.73853	315.43823	1455.50574	1434.38147	343.15369	1125.52625	1438.94556	205.38289	1379.20532	1449.59802	163.56276	1203.57825	1363.01245	385.78464	1281.92468	1600.45471	253.57603	1412.58594	1669.44324	224.01488	1211.70227	1677.81152	203.30690	1099.87939	1677.54175	107.60751	983.50958	1614.44910	0.68003	931.72308	1650.00305	42.49876	886.65350	1636.88745	-38.03611	847.63263	1278.10388	250.14600	1408.38977	1191.47095	292.45816	1209.86230	1180.86902	283.48071	1087.55750	1164.68677	264.69272	968.58545	1198.47351	199.36301	832.78802	1157.53503	253.13231	831.45441	1157.13086	212.90852	757.16803	1552.25647	169.05571	965.60156	1330.89807	153.14078	977.74341	1513.93201	325.02951	990.81873	1346.66357	306.77795	1001.05798	1603.15234	236.23335	645.22192	1586.07068	230.74112	481.63583	1567.97388	416.69034	314.44315	1525.53577	537.24908	195.16510	1474.52991	566.73370	213.96936	1531.93445	479.40607	60.76939	1266.68408	178.52698	647.31134	1292.71912	162.25493	523.66364	1289.38660	180.48624	257.15723	1335.77625	175.76501	71.13873	1382.13647	213.01503	45.79447	1341.37964	21.39988	41.22803	1424.98840	294.27286	1703.42639																																	 
180	1.790	1477.15906	180.96236	1675.28760	1346.79919	190.65335	1654.72754	1491.85144	310.58133	1614.08862	1363.71069	319.77658	1599.40613	1440.15894	309.10251	1455.98987	1432.93030	337.01276	1125.98755	1437.65369	199.07790	1379.54163	1448.26025	157.56578	1203.91064	1361.20972	379.47922	1282.52112	1599.20959	247.72504	1412.80237	1668.16272	219.72433	1211.51416	1676.61499	199.66953	1099.56311	1677.21948	104.92024	982.38159	1614.97314	-1.94302	929.50336	1650.43958	40.55160	884.91083	1638.06262	-39.82354	845.24500	1276.65710	243.43784	1408.83472	1190.18542	284.75504	1210.11316	1179.12000	275.74261	1087.96350	1162.97217	256.41132	969.09235	1197.07996	191.00092	833.51666	1155.79700	244.35466	832.05511	1155.52124	203.66019	757.93475	1551.08826	162.91797	966.10254	1329.74988	147.09430	978.13715	1512.88635	318.98715	991.13269	1345.57141	300.84558	1001.53772	1602.04333	226.55025	645.54602	1584.77844	218.22871	482.29166	1566.65735	404.64758	317.11078	1524.01331	526.94043	199.61400	1472.60254	555.80389	218.28656	1532.38965	470.84662	64.38726	1265.85449	173.89238	647.52185	1291.81165	159.01213	523.54407	1289.00647	178.98843	257.21732	1335.76440	175.47797	71.09591	1382.06384	213.00653	45.84689	1341.54871	21.50424	41.02491	1423.73743	287.67163	1703.88525																																	 
181	1.800	1476.24243	174.49190	1675.62305	1345.84753	183.89900	1655.14758	1490.49829	304.14655	1614.53210	1362.30774	313.31934	1599.94775	1438.79468	302.83212	1456.46802	1431.61804	331.00940	1126.49158	1436.45410	192.87817	1379.88501	1447.05676	151.54948	1204.26599	1359.53943	373.26059	1283.10596	1597.98218	241.97989	1413.04248	1666.90039	215.43553	1211.41162	1675.42554	196.07602	1099.42786	1676.75427	102.68856	981.28693	1615.60950	-4.18200	927.01471	1651.03101	38.99345	883.02155	1639.41638	-41.02818	842.57239	1275.33472	236.85461	1409.30359	1188.48535	277.51700	1210.64392	1177.47290	268.07785	1088.45776	1161.37805	248.26410	969.67206	1195.49634	182.02979	834.47040	1154.17493	235.49770	832.68677	1153.88867	194.60236	758.76245	1549.94702	156.98738	966.50793	1328.64380	141.10321	978.56842	1511.81433	313.07147	991.54468	1344.45459	294.84854	1001.91266	1600.98511	216.94334	645.96210	1583.51062	205.99153	482.98734	1565.34143	392.74435	319.44647	1522.59216	516.10132	203.06807	1470.80640	544.86395	221.02448	1532.40967	459.26569	67.93248	1265.16577	169.59465	647.69244	1291.01953	155.91179	523.36011	1288.89905	177.49063	257.15100	1335.89600	175.21573	71.10252	1382.07056	213.01291	45.93013	1341.80957	21.54401	40.83263	1422.54211	281.05722	1704.37256																																	 
182	1.810	1475.33789	168.06863	1675.89209	1344.95605	177.06039	1655.58582	1489.26746	297.98578	1615.02173	1361.04004	307.13077	1600.41003	1437.29309	296.63907	1456.84229	1430.23315	325.00009	1127.00281	1435.27429	186.71649	1380.24011	1445.89417	145.61913	1204.55432	1357.96375	366.97473	1283.61121	1596.80212	236.37228	1413.38757	1665.67310	211.17500	1211.48792	1674.19067	192.62555	1099.38831	1676.81262	100.50500	980.04688	1616.42163	-6.02116	924.28650	1651.85132	37.88934	880.98273	1641.00122	-41.77926	839.58630	1274.08032	230.39566	1409.81494	1187.34009	270.05057	1211.05798	1175.93774	260.52295	1089.00903	1159.87061	240.08292	970.32935	1194.14148	173.64767	835.31970	1152.58057	226.76897	833.44519	1152.36401	185.36597	759.72906	1548.80359	151.05902	967.06781	1327.61670	135.17984	978.93939	1510.77832	307.16583	992.01453	1343.26672	288.96097	1002.32666	1599.93506	207.50555	646.44305	1582.10913	194.13744	483.84494	1564.05786	380.84604	321.37292	1521.29810	504.36380	205.28987	1469.55835	533.68732	222.61757	1533.14050	446.33896	71.34204	1264.68567	165.80605	647.51056	1290.28979	152.96353	523.14142	1288.93115	176.20876	257.12228	1336.06836	174.97307	71.16479	1382.14966	212.96426	45.98468	1342.07617	21.58146	40.73441	1421.41248	274.44864	1704.86975																																	 
